# WaveFront *.obj file (generated by Autodesk ATF)

mtllib router-table.mtl

g Body1

v -325.000000 0.000000 450.000000
v -325.000000 0.000000 0.000000
v -325.000000 -24.000000 0.000000
v -325.000000 -24.000000 450.000000
v 325.000000 0.000000 450.000000
v 325.000000 -24.000000 450.000000
v 325.000000 0.000000 0.000000
v 325.000000 -24.000000 0.000000
vt -0.000000 0.000000 0.000000
vt 45.000000 0.000000 0.000000
vt 0.000000 2.400000 0.000000
vt 45.000000 2.400000 0.000000
vt -0.000000 0.000000 0.000000
vt 65.000000 0.000000 0.000000
vt 0.000000 2.400000 0.000000
vt 65.000000 2.400000 0.000000
vt 0.000000 0.000000 0.000000
vt 45.000000 0.000000 0.000000
vt 0.000000 2.400000 0.000000
vt 45.000000 2.400000 0.000000
vt 0.000000 0.000000 0.000000
vt 65.000000 0.000000 0.000000
vt 0.000000 2.400000 0.000000
vt 65.000000 2.400000 0.000000
vt 32.500000 22.500000 0.000000
vt -32.500000 22.500000 0.000000
vt 32.500000 -22.500000 0.000000
vt -32.500000 -22.500000 0.000000
vt 22.500000 32.500000 0.000000
vt -22.500000 32.500000 0.000000
vt 22.500000 -32.500000 0.000000
vt -22.500000 -32.500000 0.000000
vn -0.100000 0.000000 0.000000
vn -0.100000 0.000000 0.000000
vn -0.100000 0.000000 0.000000
vn -0.100000 0.000000 0.000000
vn 0.000000 0.000000 0.100000
vn 0.000000 0.000000 0.100000
vn 0.000000 0.000000 0.100000
vn 0.000000 0.000000 0.100000
vn 0.100000 0.000000 0.000000
vn 0.100000 0.000000 0.000000
vn 0.100000 0.000000 0.000000
vn 0.100000 0.000000 0.000000
vn 0.000000 0.000000 -0.100000
vn 0.000000 0.000000 -0.100000
vn 0.000000 0.000000 -0.100000
vn 0.000000 0.000000 -0.100000
vn 0.000000 0.100000 0.000000
vn 0.000000 0.100000 0.000000
vn 0.000000 0.100000 0.000000
vn 0.000000 0.100000 0.000000
vn 0.000000 -0.100000 0.000000
vn 0.000000 -0.100000 0.000000
vn 0.000000 -0.100000 0.000000
vn 0.000000 -0.100000 0.000000
usemtl Steel_-_Satin
f 1/1/1 2/2/2 4/3/3
f 4/3/3 2/2/2 3/4/4
f 5/5/5 1/6/6 6/7/7
f 6/7/7 1/6/6 4/8/8
f 7/9/9 5/10/10 8/11/11
f 8/11/11 5/10/10 6/12/12
f 2/13/13 7/14/14 3/15/15
f 3/15/15 7/14/14 8/16/16
f 7/17/17 2/18/18 5/19/19
f 5/19/19 2/18/18 1/20/20
f 8/21/21 6/22/22 3/23/23
f 3/23/23 6/22/22 4/24/24
g Body1:1

v 245.000000 -24.000000 0.000000
v 325.000000 -24.000000 0.000000
v 325.000000 -334.000000 0.000000
v 245.000000 -334.000000 0.000000
v 245.000000 -24.000000 24.000000
v 245.000000 -334.000000 24.000000
v 325.000000 -24.000000 24.000000
v 325.000000 -334.000000 24.000000
vt 0.000000 0.000000 0.000000
vt 8.000000 0.000000 0.000000
vt 0.000000 31.000000 0.000000
vt 8.000000 31.000000 0.000000
vt -0.000000 0.000000 0.000000
vt 2.400000 0.000000 0.000000
vt 0.000000 31.000000 0.000000
vt 2.400000 31.000000 0.000000
vt -0.000000 0.000000 0.000000
vt 8.000000 0.000000 0.000000
vt 0.000000 31.000000 0.000000
vt 8.000000 31.000000 0.000000
vt 0.000000 0.000000 0.000000
vt 2.400000 0.000000 0.000000
vt 0.000000 31.000000 0.000000
vt 2.400000 31.000000 0.000000
vt 4.000000 1.200000 0.000000
vt -4.000000 1.200000 0.000000
vt 4.000000 -1.200000 0.000000
vt -4.000000 -1.200000 0.000000
vt 1.200000 4.000000 0.000000
vt -1.200000 4.000000 0.000000
vt 1.200000 -4.000000 0.000000
vt -1.200000 -4.000000 0.000000
vn 0.000000 0.000000 -0.100000
vn 0.000000 0.000000 -0.100000
vn 0.000000 0.000000 -0.100000
vn 0.000000 0.000000 -0.100000
vn -0.100000 0.000000 0.000000
vn -0.100000 0.000000 0.000000
vn -0.100000 0.000000 0.000000
vn -0.100000 0.000000 0.000000
vn 0.000000 0.000000 0.100000
vn 0.000000 0.000000 0.100000
vn 0.000000 0.000000 0.100000
vn 0.000000 0.000000 0.100000
vn 0.100000 0.000000 0.000000
vn 0.100000 0.000000 0.000000
vn 0.100000 0.000000 0.000000
vn 0.100000 0.000000 0.000000
vn 0.000000 0.100000 0.000000
vn 0.000000 0.100000 0.000000
vn 0.000000 0.100000 0.000000
vn 0.000000 0.100000 0.000000
vn 0.000000 -0.100000 0.000000
vn 0.000000 -0.100000 0.000000
vn 0.000000 -0.100000 0.000000
vn 0.000000 -0.100000 0.000000
f 9/25/25 10/26/26 12/27/27
f 12/27/27 10/26/26 11/28/28
f 13/29/29 9/30/30 14/31/31
f 14/31/31 9/30/30 12/32/32
f 15/33/33 13/34/34 16/35/35
f 16/35/35 13/34/34 14/36/36
f 10/37/37 15/38/38 11/39/39
f 11/39/39 15/38/38 16/40/40
f 10/41/41 9/42/42 15/43/43
f 15/43/43 9/42/42 13/44/44
f 11/45/45 16/46/46 12/47/47
f 12/47/47 16/46/46 14/48/48
g Body1:2

v -325.000000 -24.000000 0.000000
v -245.000000 -24.000000 0.000000
v -245.000000 -334.000000 0.000000
v -325.000000 -334.000000 0.000000
v -245.000000 -24.000000 24.000000
v -245.000000 -334.000000 24.000000
v -325.000000 -24.000000 24.000000
v -325.000000 -334.000000 24.000000
vt -8.000000 -0.000000 0.000000
vt -0.000000 -0.000000 0.000000
vt -8.000000 31.000000 0.000000
vt -0.000000 31.000000 0.000000
vt -2.400000 0.000000 0.000000
vt -0.000000 0.000000 0.000000
vt -2.400000 31.000000 0.000000
vt -0.000000 31.000000 0.000000
vt -8.000000 0.000000 0.000000
vt -0.000000 -0.000000 0.000000
vt -8.000000 31.000000 0.000000
vt -0.000000 31.000000 0.000000
vt -2.400000 0.000000 0.000000
vt -0.000000 -0.000000 0.000000
vt -2.400000 31.000000 0.000000
vt -0.000000 31.000000 0.000000
vt -4.000000 -1.200000 0.000000
vt 4.000000 -1.200000 0.000000
vt -4.000000 1.200000 0.000000
vt 4.000000 1.200000 0.000000
vt 1.200000 4.000000 0.000000
vt -1.200000 4.000000 0.000000
vt 1.200000 -4.000000 0.000000
vt -1.200000 -4.000000 0.000000
vn 0.000000 0.000000 -0.100000
vn 0.000000 0.000000 -0.100000
vn 0.000000 0.000000 -0.100000
vn 0.000000 0.000000 -0.100000
vn 0.100000 -0.000000 0.000000
vn 0.100000 -0.000000 0.000000
vn 0.100000 -0.000000 0.000000
vn 0.100000 -0.000000 0.000000
vn 0.000000 0.000000 0.100000
vn 0.000000 0.000000 0.100000
vn 0.000000 0.000000 0.100000
vn 0.000000 0.000000 0.100000
vn -0.100000 0.000000 0.000000
vn -0.100000 0.000000 0.000000
vn -0.100000 0.000000 0.000000
vn -0.100000 0.000000 0.000000
vn 0.000000 0.100000 0.000000
vn 0.000000 0.100000 0.000000
vn 0.000000 0.100000 0.000000
vn 0.000000 0.100000 0.000000
vn -0.000000 -0.100000 0.000000
vn -0.000000 -0.100000 0.000000
vn -0.000000 -0.100000 0.000000
vn -0.000000 -0.100000 0.000000
f 17/49/49 18/50/50 20/51/51
f 20/51/51 18/50/50 19/52/52
f 18/53/53 21/54/54 19/55/55
f 19/55/55 21/54/54 22/56/56
f 21/57/57 23/58/58 22/59/59
f 22/59/59 23/58/58 24/60/60
f 23/61/61 17/62/62 24/63/63
f 24/63/63 17/62/62 20/64/64
f 23/65/65 21/66/66 17/67/67
f 17/67/67 21/66/66 18/68/68
f 24/69/69 20/70/70 22/71/71
f 22/71/71 20/70/70 19/72/72
g Body1:3

v 269.000000 -24.000000 24.000000
v 269.000000 -24.000000 450.000000
v 269.000000 -334.000000 450.000000
v 269.000000 -334.000000 24.000000
v 245.000000 -24.000000 24.000000
v 245.000000 -334.000000 24.000000
v 245.000000 -24.000000 450.000000
v 245.000000 -334.000000 450.000000
vt 0.000000 0.000000 0.000000
vt 42.600000 0.000000 0.000000
vt -0.000000 31.000000 0.000000
vt 42.600000 31.000000 0.000000
vt 0.000000 0.000000 0.000000
vt 2.400000 0.000000 0.000000
vt 0.000000 31.000000 0.000000
vt 2.400000 31.000000 0.000000
vt 0.000000 0.000000 0.000000
vt 42.600000 0.000000 0.000000
vt 0.000000 31.000000 0.000000
vt 42.600000 31.000000 0.000000
vt 0.000000 0.000000 0.000000
vt 2.400000 0.000000 0.000000
vt 0.000000 31.000000 0.000000
vt 2.400000 31.000000 0.000000
vt -1.200000 -21.300000 0.000000
vt 1.200000 -21.300000 0.000000
vt -1.200000 21.300000 0.000000
vt 1.200000 21.300000 0.000000
vt -21.300000 -1.200000 0.000000
vt 21.300000 -1.200000 0.000000
vt -21.300000 1.200000 0.000000
vt 21.300000 1.200000 0.000000
vn 0.100000 0.000000 0.000000
vn 0.100000 0.000000 0.000000
vn 0.100000 0.000000 0.000000
vn 0.100000 0.000000 0.000000
vn 0.000000 0.000000 -0.100000
vn 0.000000 0.000000 -0.100000
vn 0.000000 0.000000 -0.100000
vn 0.000000 0.000000 -0.100000
vn -0.100000 0.000000 0.000000
vn -0.100000 0.000000 0.000000
vn -0.100000 0.000000 0.000000
vn -0.100000 0.000000 0.000000
vn 0.000000 0.000000 0.100000
vn 0.000000 0.000000 0.100000
vn 0.000000 0.000000 0.100000
vn 0.000000 0.000000 0.100000
vn 0.000000 0.100000 0.000000
vn 0.000000 0.100000 0.000000
vn 0.000000 0.100000 0.000000
vn 0.000000 0.100000 0.000000
vn 0.000000 -0.100000 0.000000
vn 0.000000 -0.100000 0.000000
vn 0.000000 -0.100000 0.000000
vn 0.000000 -0.100000 0.000000
f 25/73/73 26/74/74 28/75/75
f 28/75/75 26/74/74 27/76/76
f 29/77/77 25/78/78 30/79/79
f 30/79/79 25/78/78 28/80/80
f 31/81/81 29/82/82 32/83/83
f 32/83/83 29/82/82 30/84/84
f 26/85/85 31/86/86 27/87/87
f 27/87/87 31/86/86 32/88/88
f 31/89/89 26/90/90 29/91/91
f 29/91/91 26/90/90 25/92/92
f 32/93/93 30/94/94 27/95/95
f 27/95/95 30/94/94 28/96/96
g Body1:4

v -269.000000 -24.000000 450.000000
v -269.000000 -24.000000 24.000000
v -269.000000 -334.000000 24.000000
v -269.000000 -334.000000 450.000000
v -245.000000 -24.000000 24.000000
v -245.000000 -334.000000 24.000000
v -245.000000 -24.000000 450.000000
v -245.000000 -334.000000 450.000000
vt -42.600000 0.000000 0.000000
vt -0.000000 0.000000 0.000000
vt -42.600000 31.000000 0.000000
vt 0.000000 31.000000 0.000000
vt -2.400000 0.000000 0.000000
vt -0.000000 0.000000 0.000000
vt -2.400000 31.000000 0.000000
vt -0.000000 31.000000 0.000000
vt -42.600000 0.000000 0.000000
vt -0.000000 0.000000 0.000000
vt -42.600000 31.000000 0.000000
vt -0.000000 31.000000 0.000000
vt -2.400000 0.000000 0.000000
vt -0.000000 -0.000000 0.000000
vt -2.400000 31.000000 0.000000
vt -0.000000 31.000000 0.000000
vt -1.200000 -21.300000 0.000000
vt 1.200000 -21.300000 0.000000
vt -1.200000 21.300000 0.000000
vt 1.200000 21.300000 0.000000
vt 21.300000 1.200000 0.000000
vt -21.300000 1.200000 0.000000
vt 21.300000 -1.200000 0.000000
vt -21.300000 -1.200000 0.000000
vn -0.100000 0.000000 0.000000
vn -0.100000 0.000000 0.000000
vn -0.100000 0.000000 0.000000
vn -0.100000 0.000000 0.000000
vn 0.000000 0.000000 -0.100000
vn 0.000000 0.000000 -0.100000
vn 0.000000 0.000000 -0.100000
vn 0.000000 0.000000 -0.100000
vn 0.100000 0.000000 0.000000
vn 0.100000 0.000000 0.000000
vn 0.100000 0.000000 0.000000
vn 0.100000 0.000000 0.000000
vn 0.000000 0.000000 0.100000
vn 0.000000 0.000000 0.100000
vn 0.000000 0.000000 0.100000
vn 0.000000 0.000000 0.100000
vn 0.000000 0.100000 0.000000
vn 0.000000 0.100000 0.000000
vn 0.000000 0.100000 0.000000
vn 0.000000 0.100000 0.000000
vn 0.000000 -0.100000 0.000000
vn 0.000000 -0.100000 0.000000
vn 0.000000 -0.100000 0.000000
vn 0.000000 -0.100000 0.000000
f 33/97/97 34/98/98 36/99/99
f 36/99/99 34/98/98 35/100/100
f 34/101/101 37/102/102 35/103/103
f 35/103/103 37/102/102 38/104/104
f 37/105/105 39/106/106 38/107/107
f 38/107/107 39/106/106 40/108/108
f 39/109/109 33/110/110 40/111/111
f 40/111/111 33/110/110 36/112/112
f 33/113/113 39/114/114 34/115/115
f 34/115/115 39/114/114 37/116/116
f 36/117/117 35/118/118 40/119/119
f 40/119/119 35/118/118 38/120/120
g Body1:5

v -325.000000 73.000000 450.000000
v -325.000000 -407.000000 450.000000
v -325.000000 -407.000000 474.000000
v -325.000000 73.000000 474.000000
v 325.000000 73.000000 450.000000
v 325.000000 73.000000 474.000000
v 325.000000 -407.000000 450.000000
v 325.000000 -407.000000 474.000000
vt -0.000000 0.000000 0.000000
vt 48.000000 0.000000 0.000000
vt -0.000000 2.400000 0.000000
vt 48.000000 2.400000 0.000000
vt -0.000000 0.000000 0.000000
vt 65.000000 0.000000 0.000000
vt -0.000000 2.400000 0.000000
vt 65.000000 2.400000 0.000000
vt 0.000000 0.000000 0.000000
vt 48.000000 0.000000 0.000000
vt 0.000000 2.400000 0.000000
vt 48.000000 2.400000 0.000000
vt 0.000000 0.000000 0.000000
vt 65.000000 0.000000 0.000000
vt 0.000000 2.400000 0.000000
vt 65.000000 2.400000 0.000000
vt -32.500000 -24.000000 0.000000
vt 32.500000 -24.000000 0.000000
vt -32.500000 24.000000 0.000000
vt 32.500000 24.000000 0.000000
vt -32.500000 -24.000000 0.000000
vt 32.500000 -24.000000 0.000000
vt -32.500000 24.000000 0.000000
vt 32.500000 24.000000 0.000000
vn -0.100000 0.000000 0.000000
vn -0.100000 0.000000 0.000000
vn -0.100000 0.000000 0.000000
vn -0.100000 0.000000 0.000000
vn 0.000000 0.100000 0.000000
vn 0.000000 0.100000 0.000000
vn 0.000000 0.100000 0.000000
vn 0.000000 0.100000 0.000000
vn 0.100000 0.000000 0.000000
vn 0.100000 0.000000 0.000000
vn 0.100000 0.000000 0.000000
vn 0.100000 0.000000 0.000000
vn 0.000000 -0.100000 0.000000
vn 0.000000 -0.100000 0.000000
vn 0.000000 -0.100000 0.000000
vn 0.000000 -0.100000 0.000000
vn 0.000000 0.000000 0.100000
vn 0.000000 0.000000 0.100000
vn 0.000000 0.000000 0.100000
vn 0.000000 0.000000 0.100000
vn -0.000000 0.000000 -0.100000
vn -0.000000 0.000000 -0.100000
vn -0.000000 0.000000 -0.100000
vn -0.000000 0.000000 -0.100000
f 41/121/121 42/122/122 44/123/123
f 44/123/123 42/122/122 43/124/124
f 45/125/125 41/126/126 46/127/127
f 46/127/127 41/126/126 44/128/128
f 47/129/129 45/130/130 48/131/131
f 48/131/131 45/130/130 46/132/132
f 42/133/133 47/134/134 43/135/135
f 43/135/135 47/134/134 48/136/136
f 43/137/137 48/138/138 44/139/139
f 44/139/139 48/138/138 46/140/140
f 47/141/141 42/142/142 45/143/143
f 45/143/143 42/142/142 41/144/144
# 48 vertices
# 144 texture params
# 144 normals
# 72 facets

# 6 groups
